<svg xmlns="http://www.w3.org/2000/svg" viewBox="0 0 24 24" role="img" aria-label="Amazon Music">
  <path fill="#FF9900" d="M12 2C6.48 2 2 6.48 2 12s4.48 10 10 10 10-4.48 10-10S17.52 2 12 2zm-1.2 14.1c-2.4 0-4.35-1.55-4.35-3.45 0-1.05.62-1.95 1.58-2.45l.72 1.35c-.5.3-.82.82-.82 1.4 0 .95 1.12 1.72 2.87 1.72 1.75 0 2.87-.77 2.87-1.72 0-.58-.32-1.1-.82-1.4l.72-1.35c.96.5 1.58 1.4 1.58 2.45 0 1.9-1.95 3.45-4.35 3.45z"/>
  <path fill="#FF9900" d="M7.5 16.2c2.8 1.2 6.2 1.2 9 0 .3-.15.7-.05.85.25.15.3.05.7-.25.85-3.2 1.35-7 1.35-10.2 0-.3-.15-.4-.55-.25-.85.15-.3.55-.05.85.25z"/>
</svg>
